<?xml version="1.0" encoding="utf-8"?>
<!-- Generator: Adobe Illustrator 27.5.0, SVG Export Plug-In . SVG Version: 6.00 Build 0)  -->
<svg version="1.1" xmlns="http://www.w3.org/2000/svg" xmlns:xlink="http://www.w3.org/1999/xlink" x="0px" y="0px"
	 viewBox="0 0 500 500" style="enable-background:new 0 0 500 500;" xml:space="preserve">
<g id="BACKGROUND">
	<rect style="fill:#FFFFFF;" width="500" height="500"/>
</g>
<g id="OBJECTS">
	<g>
		<g>
			<g>
				<path style="fill:#CBCFD7;" d="M264.495,465.84c0,2.191-1.778,3.969-3.969,3.969H124.1c-2.191,0-3.969-1.778-3.969-3.969
					c0-1.096,0.445-2.09,1.162-2.807c0.717-0.717,1.711-1.162,2.807-1.162h13.006c12.211,0,22.109-9.899,22.109-22.109v-11.271
					h66.195v11.271c0,12.211,9.899,22.109,22.109,22.109h13.006C262.717,461.871,264.495,463.649,264.495,465.84z"/>
				<path style="fill:#AAAFBA;" d="M247.52,461.871H137.106c12.211,0,22.109-9.899,22.109-22.109v-11.271h66.195v11.271
					C225.41,451.972,235.309,461.871,247.52,461.871z"/>
				<polygon style="fill:#8F97A2;" points="225.41,431.411 159.215,437.965 159.215,428.491 225.41,428.491 				"/>
			</g>
			<g>
				<path style="fill:#202135;" d="M328.928,251.893v167.553H53.522V251.893c0-4.217,3.416-7.638,7.633-7.638h260.14
					C325.512,244.255,328.928,247.676,328.928,251.893z"/>
				<rect x="60.283" y="253.854" style="fill:#FFFFFF;" width="261.884" height="157.942"/>
				<g>
					<path style="fill:#676D77;" d="M329.451,416.104h-1.046V251.893c0-3.923-3.189-7.115-7.11-7.115H61.155
						c-3.92,0-7.11,3.192-7.11,7.115v164.211h-1.046V251.893c0-4.5,3.659-8.161,8.156-8.161h260.14c4.497,0,8.156,3.661,8.156,8.161
						V416.104z"/>
				</g>
				<path style="fill:#7DBFE6;" d="M165.132,248.954c0,1.205-0.977,2.182-2.182,2.182c-1.205,0-2.182-0.977-2.182-2.182
					c0-1.205,0.977-2.181,2.182-2.181C164.156,246.773,165.132,247.749,165.132,248.954z"/>
				<path style="fill:#CBCFD7;" d="M329.451,415.774v0.341c0,7.063-5.723,12.786-12.786,12.786H65.785
					c-7.063,0-12.786-5.723-12.786-12.786v-0.341H329.451z"/>
				<path style="fill:#AAAFBA;" d="M83.552,421.781c0,2.251-1.825,4.076-4.076,4.076c-2.251,0-4.076-1.825-4.076-4.076
					c0-2.251,1.825-4.076,4.076-4.076C81.727,417.705,83.552,419.53,83.552,421.781z"/>
				<path style="fill:#676D77;" d="M329.451,401.739l0.118,9.677l0.038,4.84c0.051,4.961-3.031,9.725-7.558,11.773
					c-2.226,1.086-4.773,1.281-7.215,1.234c0,0-2.419,0.022-2.419,0.022l-38.707,0.219c-62.993,0.275-140.632,0.204-203.671-0.216
					c0,0-2.419-0.022-2.419-0.022l-1.21-0.011c-2.048,0.018-4.146-0.345-6.006-1.224c-4.524-2.048-7.615-6.813-7.559-11.774
					l0.038-4.84L53,401.739l0.118,9.677c0.121,3.204-0.322,6.536,1.033,9.473c1.996,4.854,7.056,7.939,12.257,7.661
					c0.71-0.007,2.877-0.026,3.629-0.033c76.083-0.508,166.296-0.504,242.378,0.002l2.419,0.022l1.21,0.011l0.605,0.005l0.589-0.024
					c4.765-0.118,9.243-3.225,11.064-7.644c1.355-2.938,0.911-6.27,1.033-9.474L329.451,401.739L329.451,401.739z"/>
				<g>
					<path style="fill:#676D77;" d="M79.476,427.08c-2.922,0-5.299-2.377-5.299-5.299c0-2.922,2.377-5.299,5.299-5.299
						c2.922,0,5.299,2.377,5.299,5.299C84.775,424.703,82.398,427.08,79.476,427.08z M79.476,417.108
						c-2.577,0-4.673,2.096-4.673,4.673c0,2.577,2.096,4.673,4.673,4.673c2.577,0,4.673-2.096,4.673-4.673
						C84.149,419.204,82.053,417.108,79.476,417.108z"/>
				</g>
				<path style="fill:#AAAFBA;" d="M125.682,423.639H91.859c-0.917,0-1.668-0.751-1.668-1.668v-0.38
					c0-0.917,0.751-1.668,1.668-1.668h33.823c0.917,0,1.668,0.751,1.668,1.668v0.38C127.35,422.888,126.599,423.639,125.682,423.639
					z"/>
			</g>
		</g>
		<g>
			<rect x="60.283" y="265.334" style="fill:#D4FBFF;" width="261.884" height="76.096"/>
			<rect x="60.286" y="331.553" style="fill:#A4D4E0;" width="261.881" height="9.878"/>
			<path style="fill:#A4D4E0;" d="M60.286,331.553v-16.2l21.76,5.688c0,0,43.314,4.032,62.645,0.288h10.958l6.616-1.872h13.852
				l14.002-1.91l6.879-2.626l13.971,5.472l29.386,3.257l-20.407,7.903H60.286z"/>
			<path style="fill:#BDEBF2;" d="M219.945,330.258v1.294H60.283c0,0,19.694-10.584,19.694-15.624h3.927l5.794-6.695h11.904
				l23.319,10.588c3.049,1.968,6.217,3.657,9.021,4.46h8.887l17.782,4.536h26.253l14.681,1.007L219.945,330.258z"/>
			<polygon style="fill:#A4D4E0;" points="83.907,315.929 95.347,315.929 111.513,322.724 98.793,315.717 105.616,312.625 
				94.865,312.625 89.696,309.233 			"/>
			<path style="fill:#A4D4E0;" d="M133.941,324.281h-15.298l-9.315-9.36l9.315,4.901h6.277
				C127.969,321.789,131.137,323.478,133.941,324.281z"/>
			<polygon style="fill:#A4D4E0;" points="67.961,332.112 83.907,328.485 86.656,323.706 97.668,322.117 112.232,329.778 
				137.662,329.778 148.944,332.112 			"/>
			<polygon style="fill:#BDEBF2;" points="196.999,314.921 204.963,320.393 194.093,321.353 179.218,327.785 161.645,324.826 
				150.274,324.826 160.197,323.237 155.649,321.329 162.265,319.457 176.117,319.457 190.12,317.546 			"/>
			
				<ellipse transform="matrix(0.9247 -0.3807 0.3807 0.9247 -87.1813 136.2893)" style="fill:#A4D4E0;" cx="300.964" cy="288.549" rx="8.697" ry="8.697"/>
			<polygon style="fill:#BDEBF2;" points="249.212,320.393 224.132,320.924 219.074,324.671 204.963,327.694 209.097,328.414 
				225.167,329.426 240.355,323.544 			"/>
			<path style="fill:#A4D4E0;" d="M322.167,315.486l-3.341,1.639h-9.017c-15.906,5.341-51.547-0.411-51.547-0.411l-38.315,14.839
				l20.41,0.158h81.809V315.486z"/>
			<path style="fill:#BDEBF2;" d="M322.167,327.481l-13.89-6.144h-7.313c-2.307-1.145-4.914-3.555-7.423-6.362l-14.724-11.592
				l-9.405,3.11l-6.09,5.107l-8.98,1.447l-13.987,18.663h81.812V327.481z"/>
			<path style="fill:#A4D4E0;" d="M300.964,321.337h-12.588l-7.665-13.354l7.665,6.991h5.165
				C296.05,317.782,298.657,320.191,300.964,321.337z"/>
			<polygon style="fill:#A4D4E0;" points="246.673,332.509 259.794,327.334 262.056,320.516 271.117,318.249 283.101,329.179 
				304.026,329.179 313.309,332.509 			"/>
			<polygon style="fill:#BDEBF2;" points="322.167,315.486 318.826,317.125 322.167,319.555 			"/>
			<polygon style="fill:#BDEBF2;" points="322.167,319.958 314.403,322.114 322.167,322.114 			"/>
			<polygon style="fill:#A4D4E0;" points="269.412,306.493 272.921,311.089 281.901,319.049 269.412,313.813 254.342,313.047 
				263.322,311.6 			"/>
		</g>
		<g>
			<rect x="60.283" y="253.875" style="fill:#9DA2AD;" width="261.884" height="11.459"/>
			<g>
				<circle style="fill:#AAAFBA;" cx="305.681" cy="259.605" r="2.312"/>
				<circle style="fill:#8B929D;" cx="297.589" cy="259.605" r="2.312"/>
				<circle style="fill:#E5E7EB;" cx="313.774" cy="259.605" r="2.312"/>
			</g>
			<path style="fill:#E5E7EB;" d="M277.643,259.607c0,0.854-0.347,1.63-0.912,2.191c-0.561,0.565-1.337,0.912-2.195,0.912H121.553
				c-1.707,0-3.107-1.396-3.107-3.103c0-0.854,0.351-1.63,0.912-2.195c0.565-0.561,1.341-0.912,2.195-0.912h152.983
				C276.247,256.5,277.643,257.899,277.643,259.607z"/>
			<path style="fill:#AAAFBA;" d="M116.079,259.603c0,0.858-0.351,1.633-0.912,2.195c-0.561,0.565-1.337,0.912-2.191,0.912h-8.207
				c-1.708,0-3.103-1.396-3.103-3.107c0-0.854,0.347-1.63,0.912-2.191c0.561-0.561,1.337-0.912,2.191-0.912h8.207
				C114.683,256.5,116.079,257.895,116.079,259.603z"/>
			<g>
				<path style="fill:#8B929D;" d="M67.528,262.362c-0.113,0-0.226-0.043-0.313-0.128l-2.34-2.313
					c-0.084-0.083-0.132-0.197-0.132-0.316c0-0.119,0.048-0.233,0.132-0.316l2.34-2.313c0.175-0.173,0.456-0.171,0.629,0.004
					c0.172,0.175,0.171,0.456-0.004,0.629l-2.02,1.997l2.02,1.997c0.174,0.173,0.176,0.454,0.004,0.629
					C67.757,262.318,67.643,262.362,67.528,262.362z"/>
			</g>
			<g>
				<path style="fill:#8B929D;" d="M79.13,256.847c0.113,0,0.226,0.043,0.313,0.128l2.34,2.313c0.084,0.083,0.132,0.197,0.132,0.316
					s-0.048,0.233-0.132,0.316l-2.34,2.313c-0.175,0.173-0.456,0.171-0.629-0.004c-0.173-0.175-0.171-0.456,0.004-0.629l2.02-1.997
					l-2.02-1.997c-0.174-0.173-0.176-0.454-0.004-0.629C78.901,256.891,79.015,256.847,79.13,256.847z"/>
			</g>
		</g>
		<g>
			<rect x="60.283" y="265.334" style="fill:#508099;" width="261.884" height="9.675"/>
			<g>
				<path style="fill:#D4FBFF;" d="M308.512,270.46c0,0.63-0.21,1.207-0.549,1.624c-0.337,0.416-0.802,0.675-1.315,0.675h-46.793
					c-1.024,0-1.864-1.035-1.864-2.299c0-0.633,0.21-1.207,0.549-1.627c0.337-0.416,0.805-0.675,1.315-0.675h46.793
					C307.672,268.158,308.512,269.193,308.512,270.46z"/>
				<g>
					<g>
						<g>
							<path style="fill:#508099;" d="M305.439,271.51c-0.775,0-1.405-0.63-1.405-1.405c0-0.775,0.63-1.405,1.405-1.405
								c0.775,0,1.405,0.63,1.405,1.405C306.844,270.88,306.213,271.51,305.439,271.51z M305.439,269.189
								c-0.505,0-0.916,0.411-0.916,0.916c0,0.505,0.411,0.916,0.916,0.916c0.505,0,0.916-0.411,0.916-0.916
								C306.355,269.6,305.944,269.189,305.439,269.189z"/>
						</g>
						<g>
							<path style="fill:#508099;" d="M303.57,272.218c-0.063,0-0.125-0.024-0.173-0.072c-0.095-0.095-0.095-0.25,0-0.346
								l1.031-1.031c0.095-0.095,0.25-0.095,0.346,0c0.096,0.096,0.096,0.25,0,0.346l-1.03,1.031
								C303.695,272.194,303.633,272.218,303.57,272.218z"/>
						</g>
					</g>
				</g>
			</g>
		</g>
		<path style="fill:#508099;" d="M174.621,312.306c0,0.747-0.31,1.433-0.803,1.926c-0.493,0.498-1.174,0.803-1.926,0.803h-18.774
			c-1.504,0-2.734-1.23-2.734-2.729c0-0.752,0.305-1.433,0.803-1.926c0.498-0.498,1.179-0.803,1.931-0.803h18.774
			C173.391,309.577,174.621,310.801,174.621,312.306z"/>
		<g>
			<rect x="69.766" y="347.274" style="fill:#A4D4E0;" width="49.958" height="32.709"/>
			<polygon style="fill:#7DB5D0;" points="69.766,379.983 69.766,369.915 82.729,364.443 93.799,364.443 104.198,357.862 
				115.75,363.629 119.724,364.662 119.724,379.983 			"/>
			<polygon style="fill:#508099;" points="69.766,379.983 69.766,372.76 80.902,376.372 92.664,376.372 102.315,370.134 
				116.129,370.134 119.724,373.641 119.724,379.983 			"/>
			<path style="fill:#508099;" d="M88.036,354.952c0,2.936-2.38,5.316-5.316,5.316c-2.936,0-5.316-2.38-5.316-5.316
				c0-2.936,2.38-5.316,5.316-5.316C85.656,349.637,88.036,352.017,88.036,354.952z"/>
			<polygon style="fill:#649DB4;" points="93.799,364.443 108.453,364.443 104.198,357.862 			"/>
			<polygon style="fill:#649DB4;" points="82.729,364.443 85.662,371.313 92.268,373.996 78.686,373.996 69.766,369.915 			"/>
		</g>
		<path style="fill:#508099;" d="M88.17,398.091v0.646c0,1.112-0.916,2.028-2.028,2.028H73.883c-1.112,0-2.028-0.917-2.028-2.028
			v-0.646c0-1.112,0.916-2.028,2.028-2.028h12.259C87.254,396.063,88.17,396.979,88.17,398.091z"/>
		<g>
			<rect x="126.99" y="347.251" style="fill:#7DB5D0;" width="49.958" height="32.709"/>
			<polygon style="fill:#508099;" points="126.99,379.96 126.99,369.892 139.952,364.42 151.023,364.42 161.422,357.838 
				172.974,363.605 176.948,364.639 176.948,379.96 			"/>
			<polygon style="fill:#649DB4;" points="126.99,379.96 126.99,372.737 138.126,376.348 149.888,376.348 159.538,370.11 
				173.353,370.11 176.948,373.617 176.948,379.96 			"/>
			<path style="fill:#A4D4E0;" d="M145.26,354.929c0,2.936-2.38,5.316-5.316,5.316s-5.316-2.38-5.316-5.316
				c0-2.936,2.38-5.316,5.316-5.316S145.26,351.993,145.26,354.929z"/>
			<polygon style="fill:#649DB4;" points="151.023,364.42 165.676,364.42 161.422,357.838 			"/>
			<polygon style="fill:#649DB4;" points="139.952,364.42 142.886,371.289 149.492,373.973 135.909,373.973 126.99,369.892 			"/>
		</g>
		<path style="fill:#508099;" d="M145.394,398.068v0.646c0,1.112-0.916,2.028-2.028,2.028h-12.259c-1.112,0-2.028-0.917-2.028-2.028
			v-0.646c0-1.112,0.916-2.028,2.028-2.028h12.259C144.477,396.039,145.394,396.956,145.394,398.068z"/>
	</g>
	<g>
		<g>
			<path style="fill:#CBCFD7;" d="M456.297,213.593c0.004,0.394-0.074,0.795-0.238,1.181c-1.673,3.887-5.497,6.405-9.731,6.405
				H211.527c-4.234,0-8.059-2.519-9.731-6.405c-0.16-0.374-0.238-0.764-0.238-1.146c0-1.123,0.655-2.191,1.751-2.667l26.324-14.862
				h198.59l26.324,14.862C455.63,211.433,456.281,212.482,456.297,213.593z"/>
			<path style="fill:#202135;" d="M427.768,71.238V196.1H230.087V71.238c0-3.142,2.546-5.692,5.688-5.692H422.08
				C425.223,65.546,427.768,68.095,427.768,71.238z"/>
			<rect x="235.125" y="72.699" style="fill:#FFFFFF;" width="187.605" height="117.7"/>
			<g>
				<path style="fill:#676D77;" d="M428.158,196.1h-0.78V71.238c0-2.924-2.377-5.302-5.298-5.302H235.775
					c-2.922,0-5.298,2.378-5.298,5.302V196.1h-0.78V71.238c0-3.354,2.727-6.082,6.078-6.082H422.08c3.351,0,6.078,2.728,6.078,6.082
					V196.1z"/>
			</g>
			<rect x="312.02" y="214.026" style="fill:#202135;" width="33.814" height="0.815"/>
			<path style="fill:#8F97A2;" d="M429.864,192.092v2.316c0,0.932-0.76,1.692-1.692,1.692H229.683c-0.932,0-1.692-0.76-1.692-1.692
				v-2.316c0-0.932,0.76-1.692,1.692-1.692h198.489C429.104,190.4,429.864,191.16,429.864,192.092z"/>
			<polygon style="fill:#AAAFBA;" points="435.919,206.182 221.937,206.182 234.824,197.174 423.031,197.174 			"/>
			<path style="fill:#AAAFBA;" d="M357.58,212.115h-57.302c-2.033,0-3.102-1.295-1.739-2.105l4.439-2.646
				c0.444-0.264,1.076-0.415,1.739-0.415h48.42c0.664,0,1.296,0.151,1.739,0.415l4.439,2.646
				C360.679,210.82,359.61,212.115,357.58,212.115z"/>
			<path style="fill:#AAAFBA;" d="M456.297,213.593c0.004,0.394-0.074,0.795-0.238,1.181c-1.673,3.887-5.497,6.405-9.731,6.405
				H211.527c-4.234,0-8.059-2.519-9.731-6.405c-0.16-0.374-0.238-0.764-0.238-1.146h254.5
				C456.141,213.617,456.219,213.605,456.297,213.593z"/>
			<path style="fill:#676D77;" d="M201.559,213.628c88.103-0.796,166.559-0.794,254.738-0.035
				C368.095,214.375,289.684,214.401,201.559,213.628L201.559,213.628z"/>
			<rect x="306.71" y="214.026" style="fill:#676D77;" width="44.436" height="2.818"/>
			<path style="fill:#7DBFE6;" d="M312.449,69.048c0,0.898-0.728,1.626-1.626,1.626c-0.898,0-1.626-0.728-1.626-1.626
				c0-0.898,0.728-1.626,1.626-1.626C311.721,67.422,312.449,68.15,312.449,69.048z"/>
		</g>
		<g>
			<rect x="235.168" y="80.908" style="fill:#D4FBFF;" width="187.605" height="54.513"/>
			<rect x="235.17" y="128.345" style="fill:#A4D4E0;" width="187.603" height="7.076"/>
			<path style="fill:#A4D4E0;" d="M235.17,128.345V116.74l15.588,4.075c0,0,31.029,2.888,44.877,0.206h7.85l4.74-1.341h9.923
				l10.031-1.369l4.928-1.881l10.008,3.92l21.051,2.333l-14.619,5.662H235.17z"/>
			<path style="fill:#BDEBF2;" d="M349.544,127.417v0.927H235.168c0,0,14.108-7.582,14.108-11.192h2.813l4.15-4.796h8.528
				l16.705,7.585c2.184,1.41,4.454,2.62,6.463,3.195h6.367l12.739,3.25h18.807l10.517,0.721L349.544,127.417z"/>
			<polygon style="fill:#A4D4E0;" points="252.091,117.152 260.286,117.152 271.867,122.02 262.755,117.001 267.642,114.785 
				259.941,114.785 256.238,112.355 			"/>
			<path style="fill:#A4D4E0;" d="M287.934,123.135h-10.959l-6.673-6.705l6.673,3.511h4.497
				C283.656,121.351,285.925,122.56,287.934,123.135z"/>
			<polygon style="fill:#A4D4E0;" points="240.668,128.745 252.091,126.147 254.06,122.723 261.949,121.585 272.382,127.073 
				290.599,127.073 298.681,128.745 			"/>
			<polygon style="fill:#BDEBF2;" points="333.106,116.43 338.812,120.35 331.025,121.038 320.369,125.646 307.78,123.526 
				299.634,123.526 306.743,122.387 303.485,121.021 308.224,119.679 318.147,119.679 328.178,118.311 			"/>
			<path style="fill:#A4D4E0;" d="M413.814,97.538c0,3.441-2.789,6.23-6.23,6.23c-3.441,0-6.23-2.789-6.23-6.23
				c0-3.441,2.789-6.23,6.23-6.23C411.025,91.308,413.814,94.097,413.814,97.538z"/>
			<polygon style="fill:#BDEBF2;" points="370.51,120.35 352.543,120.731 348.92,123.415 338.812,125.58 341.773,126.096 
				353.285,126.821 364.166,122.607 			"/>
			<path style="fill:#A4D4E0;" d="M422.773,116.835l-2.393,1.174h-6.459c-11.395,3.826-36.926-0.294-36.926-0.294l-27.448,10.63
				l14.621,0.113h58.605V116.835z"/>
			<path style="fill:#BDEBF2;" d="M422.773,125.427l-9.95-4.401h-5.239c-1.653-0.821-3.52-2.547-5.318-4.558l-10.548-8.304
				l-6.737,2.228l-4.363,3.658l-6.433,1.036l-10.02,13.37h58.607V125.427z"/>
			<path style="fill:#A4D4E0;" d="M407.584,121.026h-9.018l-5.491-9.566l5.491,5.008h3.7
				C404.063,118.48,405.931,120.206,407.584,121.026z"/>
			<polygon style="fill:#A4D4E0;" points="368.692,129.03 378.091,125.323 379.711,120.438 386.202,118.814 394.787,126.644 
				409.777,126.644 416.427,129.03 			"/>
			<polygon style="fill:#BDEBF2;" points="422.773,116.835 420.379,118.009 422.773,119.75 			"/>
			<polygon style="fill:#BDEBF2;" points="422.773,120.039 417.211,121.583 422.773,121.583 			"/>
			<polygon style="fill:#A4D4E0;" points="384.981,110.393 387.495,113.685 393.928,119.388 384.981,115.636 374.185,115.087 
				380.618,114.051 			"/>
		</g>
		<g>
			<rect x="235.168" y="72.699" style="fill:#9DA2AD;" width="187.605" height="8.209"/>
			<g>
				<path style="fill:#AAAFBA;" d="M412.619,76.804c0,0.915-0.742,1.656-1.656,1.656c-0.915,0-1.656-0.742-1.656-1.656
					c0-0.915,0.742-1.656,1.656-1.656C411.878,75.147,412.619,75.889,412.619,76.804z"/>
				<path style="fill:#8B929D;" d="M406.822,76.804c0,0.915-0.742,1.656-1.656,1.656c-0.915,0-1.656-0.742-1.656-1.656
					c0-0.915,0.742-1.656,1.656-1.656C406.081,75.147,406.822,75.889,406.822,76.804z"/>
				<path style="fill:#E5E7EB;" d="M418.416,76.804c0,0.915-0.742,1.656-1.656,1.656c-0.915,0-1.656-0.742-1.656-1.656
					c0-0.915,0.742-1.656,1.656-1.656C417.675,75.147,418.416,75.889,418.416,76.804z"/>
			</g>
			<path style="fill:#E5E7EB;" d="M390.877,76.805c0,0.612-0.249,1.167-0.654,1.569c-0.402,0.405-0.958,0.654-1.572,0.654H279.059
				c-1.223,0-2.226-1-2.226-2.223c0-0.612,0.251-1.168,0.654-1.572c0.405-0.402,0.961-0.654,1.572-0.654h109.592
				C389.878,74.579,390.877,75.582,390.877,76.805z"/>
			<path style="fill:#AAAFBA;" d="M275.138,76.802c0,0.614-0.251,1.17-0.654,1.572c-0.402,0.405-0.958,0.653-1.57,0.653h-5.879
				c-1.223,0-2.223-1-2.223-2.226c0-0.612,0.249-1.167,0.653-1.57c0.402-0.402,0.958-0.654,1.57-0.654h5.879
				C274.138,74.579,275.138,75.579,275.138,76.802z"/>
			<g>
				<path style="fill:#8B929D;" d="M240.358,78.779c-0.081,0-0.162-0.031-0.224-0.092l-1.676-1.657
					c-0.06-0.06-0.094-0.141-0.094-0.226c0-0.085,0.034-0.167,0.094-0.226l1.676-1.657c0.125-0.124,0.327-0.122,0.45,0.003
					c0.124,0.125,0.122,0.327-0.003,0.45l-1.447,1.431l1.447,1.431c0.125,0.124,0.126,0.325,0.003,0.45
					C240.522,78.747,240.44,78.779,240.358,78.779z"/>
			</g>
			<g>
				<path style="fill:#8B929D;" d="M248.669,74.828c0.081,0,0.162,0.031,0.224,0.092l1.676,1.657c0.06,0.06,0.094,0.141,0.094,0.226
					c0,0.085-0.034,0.167-0.094,0.226l-1.676,1.657c-0.125,0.124-0.327,0.122-0.45-0.003c-0.123-0.125-0.122-0.327,0.003-0.45
					l1.447-1.431l-1.447-1.431c-0.125-0.124-0.126-0.325-0.003-0.45C248.505,74.86,248.587,74.828,248.669,74.828z"/>
			</g>
		</g>
		<g>
			<rect x="235.168" y="80.908" style="fill:#508099;" width="187.605" height="6.931"/>
			<g>
				<path style="fill:#D4FBFF;" d="M412.991,84.58c0,0.452-0.15,0.865-0.393,1.163c-0.242,0.298-0.575,0.484-0.942,0.484h-33.521
					c-0.733,0-1.336-0.741-1.336-1.647c0-0.454,0.15-0.865,0.393-1.166c0.242-0.298,0.576-0.484,0.942-0.484h33.521
					C412.389,82.931,412.991,83.672,412.991,84.58z"/>
				<g>
					<g>
						<g>
							<path style="fill:#508099;" d="M410.789,85.332c-0.555,0-1.007-0.451-1.007-1.007c0-0.555,0.452-1.007,1.007-1.007
								c0.555,0,1.007,0.451,1.007,1.007C411.796,84.881,411.344,85.332,410.789,85.332z M410.789,83.669
								c-0.362,0-0.656,0.294-0.656,0.656c0,0.362,0.294,0.656,0.656,0.656c0.362,0,0.656-0.294,0.656-0.656
								C411.445,83.964,411.151,83.669,410.789,83.669z"/>
						</g>
						<g>
							<path style="fill:#508099;" d="M409.451,85.839c-0.045,0-0.09-0.017-0.124-0.051c-0.068-0.068-0.068-0.179,0-0.248
								l0.738-0.738c0.068-0.068,0.179-0.068,0.248,0c0.068,0.068,0.068,0.179,0,0.248l-0.738,0.738
								C409.54,85.822,409.495,85.839,409.451,85.839z"/>
						</g>
					</g>
				</g>
			</g>
		</g>
		<g>
			<path style="fill:#508099;" d="M317.075,114.557c0,0.535-0.222,1.027-0.575,1.38c-0.353,0.357-0.841,0.575-1.38,0.575h-13.449
				c-1.078,0-1.959-0.881-1.959-1.955c0-0.539,0.218-1.027,0.575-1.38c0.357-0.357,0.845-0.575,1.384-0.575h13.449
				C316.194,112.602,317.075,113.479,317.075,114.557z"/>
		</g>
		<g>
			<rect x="244.871" y="143.837" style="fill:#A4D4E0;" width="35.788" height="23.431"/>
			<polygon style="fill:#7DB5D0;" points="244.871,167.268 244.871,160.056 254.157,156.136 262.088,156.136 269.537,151.421 
				277.813,155.553 280.66,156.293 280.66,167.268 			"/>
			<polygon style="fill:#508099;" points="244.871,167.268 244.871,162.094 252.848,164.681 261.274,164.681 268.188,160.213 
				278.084,160.213 280.66,162.725 280.66,167.268 			"/>
			<circle style="fill:#508099;" cx="254.151" cy="149.337" r="3.808"/>
			<polygon style="fill:#649DB4;" points="262.088,156.136 272.585,156.136 269.537,151.421 			"/>
			<polygon style="fill:#649DB4;" points="254.157,156.136 256.259,161.057 260.991,162.98 251.261,162.98 244.871,160.056 			"/>
		</g>
		<path style="fill:#508099;" d="M258.055,180.24v0.463c0,0.796-0.656,1.453-1.453,1.453h-8.782c-0.796,0-1.453-0.657-1.453-1.453
			v-0.463c0-0.796,0.656-1.453,1.453-1.453h8.782C257.399,178.788,258.055,179.444,258.055,180.24z"/>
		<g>
			<rect x="289.206" y="143.82" style="fill:#7DB5D0;" width="35.788" height="23.431"/>
			<polygon style="fill:#508099;" points="289.206,167.252 289.206,160.039 298.492,156.12 306.423,156.12 313.872,151.405 
				322.148,155.536 324.995,156.276 324.995,167.252 			"/>
			<polygon style="fill:#649DB4;" points="289.206,167.252 289.206,162.078 297.183,164.665 305.609,164.665 312.523,160.196 
				322.419,160.196 324.995,162.708 324.995,167.252 			"/>
			<path style="fill:#A4D4E0;" d="M302.294,149.321c0,2.103-1.705,3.808-3.808,3.808c-2.103,0-3.808-1.705-3.808-3.808
				c0-2.103,1.705-3.808,3.808-3.808C300.589,145.513,302.294,147.217,302.294,149.321z"/>
			<polygon style="fill:#649DB4;" points="306.423,156.12 316.92,156.12 313.872,151.405 			"/>
			<polygon style="fill:#649DB4;" points="298.492,156.12 300.593,161.04 305.326,162.963 295.596,162.963 289.206,160.039 			"/>
		</g>
		<path style="fill:#7DB5D0;" d="M302.39,180.224v0.463c0,0.796-0.657,1.453-1.453,1.453h-8.782c-0.796,0-1.453-0.657-1.453-1.453
			v-0.463c0-0.796,0.656-1.453,1.453-1.453h8.782C301.733,178.771,302.39,179.427,302.39,180.224z"/>
		<g>
			<rect x="332.946" y="143.829" style="fill:#A4D4E0;" width="35.788" height="23.431"/>
			<polygon style="fill:#7DB5D0;" points="332.946,167.26 332.946,160.048 342.232,156.128 350.162,156.128 357.612,151.413 
				365.888,155.544 368.734,156.285 368.734,167.26 			"/>
			<polygon style="fill:#508099;" points="332.946,167.26 332.946,162.086 340.923,164.673 349.349,164.673 356.263,160.204 
				366.159,160.204 368.734,162.717 368.734,167.26 			"/>
			<path style="fill:#508099;" d="M346.034,149.329c0,2.103-1.705,3.808-3.808,3.808c-2.103,0-3.808-1.705-3.808-3.808
				c0-2.103,1.705-3.808,3.808-3.808C344.329,145.521,346.034,147.226,346.034,149.329z"/>
			<polygon style="fill:#649DB4;" points="350.162,156.128 360.66,156.128 357.612,151.413 			"/>
			<polygon style="fill:#649DB4;" points="342.232,156.128 344.333,161.049 349.066,162.971 339.335,162.971 332.946,160.048 			"/>
		</g>
		<path style="fill:#508099;" d="M346.13,180.232v0.463c0,0.796-0.656,1.453-1.453,1.453h-8.782c-0.796,0-1.453-0.657-1.453-1.453
			v-0.463c0-0.796,0.656-1.453,1.453-1.453h8.782C345.473,178.779,346.13,179.436,346.13,180.232z"/>
		<g>
			<rect x="377.281" y="143.812" style="fill:#7DB5D0;" width="35.788" height="23.431"/>
			<polygon style="fill:#508099;" points="377.281,167.243 377.281,160.031 386.567,156.111 394.497,156.111 401.947,151.396 
				410.223,155.528 413.069,156.268 413.069,167.243 			"/>
			<polygon style="fill:#649DB4;" points="377.281,167.243 377.281,162.069 385.258,164.656 393.684,164.656 400.598,160.188 
				410.494,160.188 413.069,162.7 413.069,167.243 			"/>
			<path style="fill:#A4D4E0;" d="M390.369,149.312c0,2.103-1.705,3.808-3.808,3.808c-2.103,0-3.808-1.705-3.808-3.808
				c0-2.103,1.705-3.808,3.808-3.808C388.664,145.504,390.369,147.209,390.369,149.312z"/>
			<polygon style="fill:#649DB4;" points="394.497,156.111 404.995,156.111 401.947,151.396 			"/>
			<polygon style="fill:#649DB4;" points="386.567,156.111 388.668,161.032 393.4,162.955 383.67,162.955 377.281,160.031 			"/>
		</g>
		<path style="fill:#7DB5D0;" d="M390.465,180.215v0.463c0,0.796-0.656,1.453-1.453,1.453h-8.782c-0.796,0-1.453-0.657-1.453-1.453
			v-0.463c0-0.796,0.656-1.453,1.453-1.453h8.782C389.808,178.762,390.465,179.419,390.465,180.215z"/>
	</g>
	<g>
		<g>
			<rect x="445.396" y="278.268" style="fill:#AAAFBA;" width="1.079" height="37.871"/>
			<rect x="445.396" y="318.479" style="fill:#AAAFBA;" width="1.079" height="12.967"/>
			<path style="fill:#CBCFD7;" d="M434.908,256.896h-59.256c-5.786,0-10.495,4.799-10.495,10.698v145.985
				c0,5.899,4.71,10.698,10.495,10.698h59.256c5.786,0,10.491-4.799,10.491-10.698V267.594
				C445.399,261.695,440.693,256.896,434.908,256.896z M443.84,413.579c0,5.037-4.008,9.138-8.932,9.138h-59.256
				c-4.928,0-8.936-4.101-8.936-9.138V267.594c0-5.037,4.008-9.139,8.936-9.139h59.256c4.924,0,8.932,4.101,8.932,9.139V413.579z"/>
			<g>
				<g>
					<path style="fill:#AAAFBA;" d="M434.908,423.304h-59.256c-5.25,0-9.52-4.362-9.52-9.723V267.595
						c0-5.361,4.271-9.723,9.52-9.723h59.256c5.247,0,9.517,4.362,9.517,9.723v145.985
						C444.424,418.942,440.155,423.304,434.908,423.304z M375.652,259.042c-4.605,0-8.351,3.837-8.351,8.554v145.985
						c0,4.716,3.746,8.554,8.351,8.554h59.256c4.603,0,8.347-3.837,8.347-8.554V267.595c0-4.716-3.744-8.554-8.347-8.554H375.652z"
						/>
				</g>
			</g>
			<path style="fill:#676D77;" d="M445.4,267.595c0.251,45.628,0.582,101.098,0.511,146.461
				c-0.118,5.618-4.906,10.623-10.571,10.752c-0.878,0.036-2.139,0.022-3.025,0.025c-15.528,0.024-40.056,0.032-55.572-0.001
				c-6.079,0.42-11.374-3.905-12.046-9.991c-0.222-45.577,0.242-101.425,0.461-147.246c0,0,0.286,48.062,0.286,48.062
				c0.183,29.064,0.191,68.988,0.248,97.626c-0.04,2.39,0.718,4.775,2.21,6.651c2.098,2.708,5.459,4.016,8.841,3.79
				c14.131-0.019,38.409-0.038,52.568-0.004c0.89-0.02,3.619,0.019,4.506,0.005c3.377,0.224,6.749-1.08,8.841-3.79
				c1.491-1.877,2.249-4.261,2.209-6.652c0,0,0.002-1.502,0.002-1.502C444.91,367.368,445.085,312.245,445.4,267.595L445.4,267.595z
				"/>
		</g>
		<g>
			<path style="fill:#FFFFFF;" d="M443.84,413.581c0,5.037-4.008,9.138-8.932,9.138h-59.256c-4.928,0-8.936-4.101-8.936-9.138
				V267.595c0-5.037,4.008-9.138,8.936-9.138h59.256c4.924,0,8.932,4.101,8.932,9.138V413.581z"/>
		</g>
		<g>
			<defs>
				<path id="SVGID_1_" d="M443.841,413.579c0,5.037-4.008,9.138-8.932,9.138h-59.256c-4.928,0-8.936-4.101-8.936-9.138V267.594
					c0-5.037,4.008-9.139,8.936-9.139h59.256c4.924,0,8.932,4.101,8.932,9.139V413.579z"/>
			</defs>
			<clipPath id="SVGID_00000152957126417774506790000008240128172660506515_">
				<use xlink:href="#SVGID_1_"  style="overflow:visible;"/>
			</clipPath>
			<g style="clip-path:url(#SVGID_00000152957126417774506790000008240128172660506515_);">
				<rect x="364.501" y="254" style="fill:#D4FBFF;" width="81.289" height="87.23"/>
				<rect x="364.501" y="325.002" style="fill:#A4D4E0;" width="81.289" height="16.228"/>
				<polygon style="fill:#A4D4E0;" points="446.057,313.447 445.79,313.641 445.79,325.002 431.103,325.002 417.816,319.515 
					417.954,319.499 429.087,318.176 436.95,317.247 445.79,313.555 				"/>
				<polygon style="fill:#BDEBF2;" points="445.79,320.266 445.79,321.923 431.103,321.923 431.103,320.855 443.092,320.496 				"/>
				<polygon style="fill:#BDEBF2;" points="445.79,313.641 445.79,317.719 440.864,317.247 				"/>
				<polygon style="fill:#BDEBF2;" points="412.036,317.25 428.377,317.62 431.672,320.223 440.865,322.323 438.172,322.824 
					427.702,323.527 417.806,319.44 				"/>
				<path style="fill:#A4D4E0;" d="M364.505,313.841l2.177,1.139h5.874c10.363,3.711,33.584-0.285,33.584-0.285l24.963,10.31
					l-13.298,0.11h-53.3V313.841z"/>
				<path style="fill:#BDEBF2;" d="M364.505,322.175l9.05-4.269h4.764c1.503-0.796,3.202-2.47,4.836-4.421l9.593-8.054l6.127,2.161
					l3.968,3.548l5.851,1.005l9.113,12.968h-53.302V322.175z"/>
				<path style="fill:#A4D4E0;" d="M378.319,317.906h8.201l4.994-9.279l-4.994,4.858h-3.365
					C381.52,315.436,379.822,317.11,378.319,317.906z"/>
				<polygon style="fill:#A4D4E0;" points="413.69,325.669 405.142,322.073 403.668,317.336 397.764,315.761 389.957,323.355 
					376.324,323.355 370.276,325.669 				"/>
				<polygon style="fill:#BDEBF2;" points="364.505,313.841 366.681,314.98 364.505,316.668 				"/>
				<polygon style="fill:#BDEBF2;" points="364.505,316.948 369.563,318.446 364.505,318.446 				"/>
				<polygon style="fill:#A4D4E0;" points="398.875,307.592 396.589,310.786 390.738,316.317 398.875,312.678 408.694,312.146 
					402.843,311.141 				"/>
			</g>
			
				<rect x="366.717" y="254" style="clip-path:url(#SVGID_00000152957126417774506790000008240128172660506515_);fill:#508099;" width="77.123" height="19.716"/>
			<g style="clip-path:url(#SVGID_00000152957126417774506790000008240128172660506515_);">
				<rect x="374.309" y="408.824" style="fill:#7DB5D0;" width="61.673" height="40.378"/>
				<polygon style="fill:#508099;" points="374.309,449.203 374.309,436.774 390.311,430.019 403.978,430.019 416.815,421.894 
					431.076,429.013 435.982,430.289 435.982,449.203 				"/>
				<polygon style="fill:#649DB4;" points="374.309,449.203 374.309,440.286 388.056,444.744 402.576,444.744 414.49,437.044 
					431.543,437.044 435.982,441.373 435.982,449.203 				"/>
				<path style="fill:#A4D4E0;" d="M396.863,418.303c0,3.624-2.938,6.562-6.562,6.562c-3.624,0-6.562-2.938-6.562-6.562
					c0-3.624,2.938-6.562,6.562-6.562C393.925,411.74,396.863,414.678,396.863,418.303z"/>
				<polygon style="fill:#649DB4;" points="403.978,430.019 422.067,430.019 416.815,421.894 				"/>
				<polygon style="fill:#649DB4;" points="390.311,430.019 393.933,438.499 402.088,441.812 385.32,441.812 374.309,436.774 				
					"/>
			</g>
		</g>
		<g>
			<g>
				<path style="fill:#D4FBFF;" d="M437.507,269.31c0,0.461-0.153,0.883-0.402,1.188c-0.247,0.305-0.587,0.494-0.962,0.494h-26.084
					c-0.749,0-1.364-0.757-1.364-1.682c0-0.464,0.153-0.883,0.402-1.19c0.247-0.305,0.589-0.494,0.962-0.494h26.084
					C436.892,267.625,437.507,268.383,437.507,269.31z"/>
				<g>
					<g>
						<g>
							<path style="fill:#508099;" d="M435.259,270.077c-0.567,0-1.028-0.461-1.028-1.028c0-0.567,0.461-1.028,1.028-1.028
								c0.567,0,1.028,0.461,1.028,1.028C436.286,269.616,435.826,270.077,435.259,270.077z M435.259,268.379
								c-0.37,0-0.67,0.301-0.67,0.67s0.301,0.67,0.67,0.67c0.37,0,0.67-0.301,0.67-0.67S435.628,268.379,435.259,268.379z"/>
						</g>
						<g>
							<path style="fill:#508099;" d="M433.892,270.595c-0.046,0-0.092-0.017-0.126-0.052c-0.07-0.07-0.07-0.183,0-0.253
								l0.754-0.754c0.07-0.07,0.183-0.07,0.253,0c0.07,0.07,0.07,0.183,0,0.253l-0.754,0.754
								C433.983,270.578,433.937,270.595,433.892,270.595z"/>
						</g>
					</g>
				</g>
			</g>
			<g>
				<path style="fill:#D4FBFF;" d="M372.648,267.423c0-0.205,0.228-0.366,0.507-0.366h4.717c0.278,0,0.506,0.161,0.506,0.366
					c0,0.205-0.228,0.374-0.506,0.374h-4.717C372.876,267.797,372.648,267.629,372.648,267.423z"/>
				<path style="fill:#D4FBFF;" d="M378.377,268.831c0,0.205-0.228,0.374-0.506,0.374h-4.717c-0.278,0-0.507-0.169-0.507-0.374
					c0-0.205,0.228-0.374,0.507-0.374h4.717C378.149,268.457,378.377,268.626,378.377,268.831z"/>
				<path style="fill:#D4FBFF;" d="M378.377,270.327c0,0.205-0.228,0.374-0.506,0.374h-4.717c-0.278,0-0.507-0.169-0.507-0.374
					c0-0.205,0.228-0.374,0.507-0.374h4.717C378.149,269.953,378.377,270.121,378.377,270.327z"/>
			</g>
		</g>
		<path style="fill:#508099;" d="M402.089,298.886c0,0.567-0.235,1.087-0.609,1.461c-0.374,0.378-0.891,0.609-1.461,0.609h-14.243
			c-1.141,0-2.074-0.933-2.074-2.07c0-0.571,0.231-1.087,0.609-1.461c0.378-0.378,0.895-0.609,1.465-0.609h14.243
			C401.156,296.816,402.089,297.745,402.089,298.886z"/>
		<g>
			<path style="fill:#508099;" d="M405.279,337.99c-0.063,0-0.127-0.018-0.182-0.055l-3.336-2.202
				c-0.152-0.1-0.194-0.305-0.094-0.458c0.101-0.152,0.306-0.195,0.458-0.094l3.154,2.082l3.154-2.082
				c0.153-0.101,0.358-0.059,0.458,0.094c0.1,0.152,0.058,0.358-0.094,0.458l-3.336,2.202
				C405.406,337.971,405.342,337.99,405.279,337.99z"/>
		</g>
		<g>
			<rect x="374.309" y="346.943" style="fill:#A4D4E0;" width="61.673" height="40.378"/>
			<polygon style="fill:#7DB5D0;" points="374.309,387.321 374.309,374.892 390.311,368.137 403.978,368.137 416.815,360.013 
				431.076,367.132 435.982,368.408 435.982,387.321 			"/>
			<polygon style="fill:#508099;" points="374.309,387.321 374.309,378.405 388.056,382.863 402.576,382.863 414.49,375.162 
				431.543,375.162 435.982,379.491 435.982,387.321 			"/>
			<path style="fill:#508099;" d="M396.863,356.421c0,3.624-2.938,6.562-6.562,6.562c-3.624,0-6.562-2.938-6.562-6.562
				c0-3.624,2.938-6.562,6.562-6.562C393.925,349.859,396.863,352.797,396.863,356.421z"/>
			<polygon style="fill:#649DB4;" points="403.978,368.137 422.067,368.137 416.815,360.013 			"/>
			<polygon style="fill:#649DB4;" points="390.311,368.137 393.933,376.617 402.088,379.931 385.32,379.931 374.309,374.892 			"/>
		</g>
		<path style="fill:#508099;" d="M434.963,398.306v0.646c0,1.112-0.916,2.028-2.028,2.028h-12.259c-1.112,0-2.028-0.917-2.028-2.028
			v-0.646c0-1.112,0.916-2.028,2.028-2.028h12.259C434.047,396.278,434.963,397.195,434.963,398.306z"/>
		<g>
			<path style="fill:#202135;" d="M434.908,258.457h-59.256c-4.928,0-8.936,4.101-8.936,9.138v145.985
				c0,5.037,4.008,9.138,8.936,9.138h59.256c4.924,0,8.932-4.101,8.932-9.138V267.595
				C443.84,262.558,439.832,258.457,434.908,258.457z M441.89,413.581c0,3.965-3.131,7.189-6.982,7.189h-59.256
				c-3.852,0-6.987-3.224-6.987-7.189V267.595c0-3.965,3.135-7.189,6.987-7.189h5.294c1.793,0,3.404,1.096,4.059,2.764v0.004
				c0.655,1.669,2.265,2.764,4.059,2.764h32.429c1.793,0,3.404-1.095,4.059-2.764v-0.004c0.655-1.669,2.265-2.764,4.059-2.764h5.298
				c3.852,0,6.982,3.224,6.982,7.189V413.581z"/>
			<rect x="394.657" y="258.446" style="fill:#E5E7EB;" width="21.243" height="1.192"/>
			<path style="fill:#7DBFE6;" d="M391.545,262.661c0,0.898-0.728,1.626-1.626,1.626c-0.898,0-1.626-0.728-1.626-1.626
				c0-0.898,0.728-1.626,1.626-1.626C390.817,261.035,391.545,261.763,391.545,262.661z"/>
			<path style="fill:#FFFFFF;" d="M368.666,267.594c0.508,46.675,0.512,99.04,0,145.715
				C368.154,366.634,368.158,314.269,368.666,267.594L368.666,267.594z"/>
		</g>
	</g>
	<g>
		<g>
			<path style="fill:#202135;" d="M63.416,31.751h110.059c3.513,0,6.355,2.842,6.355,6.355v179.962c0,3.509-2.842,6.355-6.355,6.355
				H63.416c-3.509,0-6.355-2.846-6.355-6.355V38.106C57.061,34.593,59.907,31.751,63.416,31.751z"/>
			<g>
				<g>
					<g>
						<path style="fill:#676D77;" d="M57.841,38.106v179.962c0,3.076,2.503,5.575,5.575,5.575h110.059
							c3.072,0,5.575-2.499,5.575-5.575V38.106c0-3.072-2.503-5.575-5.575-5.575H63.416C60.344,32.531,57.841,35.034,57.841,38.106z
							 M173.475,33.115c2.752,0,4.99,2.238,4.99,4.99v179.962c0,2.752-2.238,4.99-4.99,4.99H63.416c-2.752,0-4.99-2.238-4.99-4.99
							V38.106c0-2.752,2.238-4.99,4.99-4.99H173.475z"/>
					</g>
					<path style="fill:#CBCFD7;" d="M56.281,38.106v179.962c0,3.934,3.201,7.134,7.135,7.134h110.059
						c3.934,0,7.134-3.201,7.134-7.134V38.106c0-3.934-3.201-7.134-7.134-7.134H63.416C59.482,30.971,56.281,34.172,56.281,38.106z
						 M173.475,32.531c3.072,0,5.575,2.503,5.575,5.575v179.962c0,3.076-2.503,5.575-5.575,5.575H63.416
						c-3.072,0-5.575-2.499-5.575-5.575V38.106c0-3.072,2.503-5.575,5.575-5.575H173.475z"/>
					<g>
						<path style="fill:#676D77;" d="M57.841,38.106v179.962c0,3.076,2.503,5.575,5.575,5.575h110.059
							c3.072,0,5.575-2.499,5.575-5.575V38.106c0-3.072-2.503-5.575-5.575-5.575H63.416C60.344,32.531,57.841,35.034,57.841,38.106z
							 M173.475,33.115c2.752,0,4.99,2.238,4.99,4.99v179.962c0,2.752-2.238,4.99-4.99,4.99H63.416c-2.752,0-4.99-2.238-4.99-4.99
							V38.106c0-2.752,2.238-4.99,4.99-4.99H173.475z"/>
					</g>
					<g>
						<path style="fill:#676D77;" d="M57.841,38.106v179.962c0,3.076,2.503,5.575,5.575,5.575h110.059
							c3.072,0,5.575-2.499,5.575-5.575V38.106c0-3.072-2.503-5.575-5.575-5.575H63.416C60.344,32.531,57.841,35.034,57.841,38.106z
							 M173.475,33.115c2.752,0,4.99,2.238,4.99,4.99v179.962c0,2.752-2.238,4.99-4.99,4.99H63.416c-2.752,0-4.99-2.238-4.99-4.99
							V38.106c0-2.752,2.238-4.99,4.99-4.99H173.475z"/>
					</g>
				</g>
			</g>
			<g>
				<path style="fill:#AAAFBA;" d="M55.502,38.106v179.962c0,4.363,3.552,7.914,7.914,7.914h110.059
					c4.363,0,7.914-3.552,7.914-7.914V38.106c0-4.363-3.552-7.914-7.914-7.914H63.416C59.053,30.191,55.502,33.743,55.502,38.106z
					 M173.475,31.751c3.505,0,6.355,2.85,6.355,6.355v179.962c0,3.505-2.85,6.355-6.355,6.355H63.416
					c-3.505,0-6.355-2.85-6.355-6.355V38.106c0-3.505,2.85-6.355,6.355-6.355H173.475z"/>
			</g>
			<path style="fill:#FFFFFF;" d="M65.359,38.293h106.176c1.505,0,2.725,1.224,2.725,2.729v163.689c0,1.509-1.22,2.729-2.725,2.729
				H65.359c-1.509,0-2.729-1.22-2.729-2.729V41.022C62.63,39.517,63.851,38.293,65.359,38.293z"/>
			<g>
				<path style="fill:#676D77;" d="M129.253,215.702v0.416c0,1.004-0.821,1.825-1.825,1.825h-17.966
					c-1.004,0-1.825-0.821-1.825-1.825v-0.416c0-1.004,0.821-1.825,1.825-1.825h17.966
					C128.432,213.877,129.253,214.699,129.253,215.702z"/>
				<path style="fill:#676D77;" d="M99.333,215.702v0.416c0,1.004-0.821,1.825-1.825,1.825H85.293c-1.004,0-1.825-0.821-1.825-1.825
					v-0.416c0-1.004,0.821-1.825,1.825-1.825h12.215C98.512,213.877,99.333,214.699,99.333,215.702z"/>
				<path style="fill:#676D77;" d="M153.423,215.702v0.416c0,1.004-0.821,1.825-1.825,1.825h-12.215
					c-1.004,0-1.825-0.821-1.825-1.825v-0.416c0-1.004,0.821-1.825,1.825-1.825h12.215
					C152.602,213.877,153.423,214.699,153.423,215.702z"/>
			</g>
		</g>
		<g>
			<path style="fill:#D4FBFF;" d="M174.266,40.905v73.484H62.63V40.905c0-1.448,1.17-2.607,2.607-2.607h106.422
				C173.096,38.299,174.266,39.457,174.266,40.905z"/>
			<rect x="62.628" y="106.175" style="fill:#A4D4E0;" width="111.635" height="8.209"/>
			<polygon style="fill:#A4D4E0;" points="106.215,99.603 89.25,106.175 62.628,106.175 62.628,94.769 64.444,94.524 70.158,92.34 
				81.776,96.896 91.812,98.01 106.037,99.581 			"/>
			<polygon style="fill:#BDEBF2;" points="89.239,105.094 89.239,106.175 62.628,106.175 62.628,103.969 73.945,104.738 			"/>
			<polygon style="fill:#BDEBF2;" points="76.785,96.896 67.741,97.687 62.628,99.904 62.628,94.769 64.444,94.524 70.158,92.34 			
				"/>
			<polygon style="fill:#BDEBF2;" points="113.584,96.893 92.725,97.335 88.518,100.451 76.783,102.965 80.221,103.564 
				93.586,104.406 106.218,99.514 			"/>
			<path style="fill:#A4D4E0;" d="M174.258,92.812l-2.779,1.363h-7.499c-13.229,4.442-42.87-0.342-42.87-0.342l-31.866,12.341
				l16.975,0.132h68.038V92.812z"/>
			<path style="fill:#BDEBF2;" d="M174.258,102.788l-11.552-5.11h-6.082c-1.919-0.953-4.087-2.956-6.174-5.291l-12.246-9.641
				l-7.821,2.587l-5.065,4.247l-7.468,1.203l-11.632,15.522h68.04V102.788z"/>
			<path style="fill:#A4D4E0;" d="M156.624,97.678h-10.469l-6.375-11.106l6.375,5.815h4.296
				C152.537,94.722,154.705,96.726,156.624,97.678z"/>
			<polygon style="fill:#A4D4E0;" points="111.472,106.97 122.385,102.666 124.265,96.996 131.802,95.11 141.768,104.2 
				159.171,104.2 166.891,106.97 			"/>
			<polygon style="fill:#BDEBF2;" points="174.258,92.812 171.48,94.175 174.258,96.196 			"/>
			<polygon style="fill:#BDEBF2;" points="174.258,96.532 167.801,98.325 174.258,98.325 			"/>
			<polygon style="fill:#A4D4E0;" points="130.383,85.333 133.302,89.156 140.77,95.776 130.383,91.421 117.85,90.784 
				125.319,89.58 			"/>
		</g>
		<g>
			<rect x="72.244" y="124.426" style="fill:#7DB5D0;" width="49.958" height="32.709"/>
			<polygon style="fill:#508099;" points="72.244,157.135 72.244,147.067 85.207,141.595 96.277,141.595 106.676,135.013 
				118.228,140.78 122.202,141.814 122.202,157.135 			"/>
			<polygon style="fill:#649DB4;" points="72.244,157.135 72.244,149.912 83.38,153.523 95.142,153.523 104.793,147.286 
				118.607,147.286 122.202,150.792 122.202,157.135 			"/>
			<path style="fill:#A4D4E0;" d="M90.514,132.104c0,2.936-2.38,5.316-5.316,5.316c-2.936,0-5.316-2.38-5.316-5.316
				c0-2.936,2.38-5.316,5.316-5.316C88.134,126.788,90.514,129.168,90.514,132.104z"/>
			<polygon style="fill:#649DB4;" points="96.277,141.595 110.931,141.595 106.676,135.013 			"/>
			<polygon style="fill:#649DB4;" points="85.207,141.595 88.14,148.464 94.746,151.148 81.163,151.148 72.244,147.067 			"/>
		</g>
		<path style="fill:#508099;" d="M142.897,153.358v0.581c0,1-0.825,1.825-1.825,1.825h-11.033c-1.001,0-1.825-0.825-1.825-1.825
			v-0.581c0-1.001,0.825-1.825,1.825-1.825h11.033C142.072,151.533,142.897,152.358,142.897,153.358z"/>
		<path style="fill:#7DB5D0;" d="M142.897,192.967v0.581c0,1.001-0.825,1.825-1.825,1.825h-11.033c-1.001,0-1.825-0.825-1.825-1.825
			v-0.581c0-1.001,0.825-1.825,1.825-1.825h11.033C142.072,191.141,142.897,191.966,142.897,192.967z"/>
		<g>
			<rect x="72.241" y="164.035" style="fill:#A4D4E0;" width="49.958" height="32.709"/>
			<polygon style="fill:#7DB5D0;" points="72.241,196.743 72.241,186.675 85.204,181.204 96.275,181.204 106.674,174.622 
				118.226,180.389 122.2,181.422 122.2,196.743 			"/>
			<polygon style="fill:#508099;" points="72.241,196.743 72.241,189.521 83.377,193.132 95.139,193.132 104.79,186.894 
				118.604,186.894 122.2,190.401 122.2,196.743 			"/>
			<path style="fill:#508099;" d="M90.512,171.713c0,2.936-2.38,5.316-5.316,5.316s-5.316-2.38-5.316-5.316s2.38-5.316,5.316-5.316
				S90.512,168.777,90.512,171.713z"/>
			<polygon style="fill:#649DB4;" points="96.275,181.204 110.928,181.204 106.674,174.622 			"/>
			<polygon style="fill:#649DB4;" points="85.204,181.204 88.138,188.073 94.744,190.757 81.161,190.757 72.241,186.675 			"/>
		</g>
		<g>
			<path style="fill:#508099;" d="M118.445,111.711c-0.063,0-0.127-0.018-0.182-0.055l-3.336-2.202
				c-0.152-0.1-0.194-0.306-0.094-0.458c0.101-0.152,0.306-0.195,0.458-0.094l3.154,2.082l3.154-2.082
				c0.153-0.101,0.358-0.059,0.458,0.094c0.1,0.152,0.058,0.358-0.094,0.458l-3.336,2.202
				C118.572,111.693,118.509,111.711,118.445,111.711z"/>
		</g>
		<g>
			<path style="fill:#508099;" d="M174.266,40.905v7.062H62.63v-7.062c0-1.448,1.17-2.618,2.607-2.618h106.411
				C173.096,38.288,174.266,39.457,174.266,40.905z"/>
			<g>
				<path style="fill:#D4FBFF;" d="M169.852,43.416c0,0.461-0.153,0.883-0.402,1.188c-0.247,0.305-0.587,0.494-0.962,0.494h-26.084
					c-0.749,0-1.364-0.757-1.364-1.682c0-0.464,0.153-0.883,0.402-1.19c0.247-0.305,0.589-0.494,0.962-0.494h26.084
					C169.237,41.731,169.852,42.489,169.852,43.416z"/>
				<g>
					<g>
						<g>
							<path style="fill:#508099;" d="M167.604,44.183c-0.567,0-1.028-0.461-1.028-1.028c0-0.567,0.461-1.028,1.028-1.028
								c0.567,0,1.028,0.461,1.028,1.028C168.632,43.722,168.171,44.183,167.604,44.183z M167.604,42.485
								c-0.37,0-0.67,0.301-0.67,0.67c0,0.37,0.301,0.67,0.67,0.67c0.37,0,0.67-0.301,0.67-0.67
								C168.274,42.786,167.973,42.485,167.604,42.485z"/>
						</g>
						<g>
							<path style="fill:#508099;" d="M166.237,44.701c-0.046,0-0.092-0.017-0.126-0.052c-0.07-0.07-0.07-0.183,0-0.253l0.754-0.754
								c0.07-0.07,0.183-0.07,0.253,0c0.07,0.07,0.07,0.183,0,0.253l-0.754,0.754C166.328,44.684,166.282,44.701,166.237,44.701z"/>
						</g>
					</g>
				</g>
			</g>
			<g>
				<path style="fill:#D4FBFF;" d="M68.234,41.529c0-0.205,0.229-0.367,0.507-0.367h4.717c0.278,0,0.506,0.161,0.506,0.367
					c0,0.205-0.228,0.374-0.506,0.374H68.74C68.462,41.903,68.234,41.735,68.234,41.529z"/>
				<path style="fill:#D4FBFF;" d="M73.964,42.937c0,0.205-0.228,0.374-0.506,0.374H68.74c-0.278,0-0.507-0.169-0.507-0.374
					s0.229-0.374,0.507-0.374h4.717C73.735,42.563,73.964,42.732,73.964,42.937z"/>
				<path style="fill:#D4FBFF;" d="M73.964,44.433c0,0.205-0.228,0.374-0.506,0.374H68.74c-0.278,0-0.507-0.169-0.507-0.374
					c0-0.205,0.229-0.374,0.507-0.374h4.717C73.735,44.059,73.964,44.227,73.964,44.433z"/>
			</g>
		</g>
		<path style="fill:#508099;" d="M115.255,73.645c0,0.567-0.235,1.087-0.609,1.461c-0.374,0.378-0.891,0.609-1.461,0.609H98.942
			c-1.141,0-2.074-0.933-2.074-2.07c0-0.571,0.231-1.087,0.609-1.461c0.378-0.378,0.895-0.609,1.465-0.609h14.243
			C114.322,71.574,115.255,72.503,115.255,73.645z"/>
	</g>
</g>
<g id="TEXTS">
	<text transform="matrix(1 0 0 1 132.9424 271.7576)" style="fill:#D4FBFF; font-family:'Montserrat-Medium'; font-size:2.2278px;">SERVICE</text>
	<text transform="matrix(1 0 0 1 102.7099 271.7556)" style="fill:#D4FBFF; font-family:'Montserrat-Medium'; font-size:2.2278px;">INFO</text>
	<text transform="matrix(1 0 0 1 166.4868 271.7556)" style="fill:#D4FBFF; font-family:'Montserrat-Medium'; font-size:2.2278px;">CONTACT</text>
	<text transform="matrix(1 0 0 1 76.5463 271.7576)" style="fill:#D4FBFF; font-family:'Montserrat-Medium'; font-size:2.2278px;">NEWS</text>
	<text transform="matrix(1 0 0 1 149.601 291.075)" style="fill:#508099; font-family:'Nunito-SemiBold'; font-size:13.3668px;">YOUR WEBSITE</text>
	<rect x="151.969" y="297.889" style="fill:none;" width="78.512" height="6.796"/>
	
		<text transform="matrix(1 0 0 1 168.7475 300.2615)" style="fill:#508099; font-family:'Montserrat-Regular'; font-size:3.3417px;">LOREM IPSUM DOLOR SIT AMET.</text>
	<text transform="matrix(1 0 0 1 71.8549 386.9714)" style="fill:#508099; font-family:'Nunito-Regular'; font-size:5.219px;">TITLE HERE</text>
	<g>
		<text transform="matrix(1 0 0 1 71.8549 393.0681)" style="fill:#8B929D; font-family:'Nunito-Regular'; font-size:4.3949px;">HEADLINE HERE</text>
	</g>
	<text transform="matrix(1 0 0 1 75.3608 399.2761)" style="fill:#FFFFFF; font-family:'Nunito-Regular'; font-size:3.1177px;">MORE</text>
	<text transform="matrix(1 0 0 1 129.0786 386.948)" style="fill:#508099; font-family:'Nunito-Regular'; font-size:5.219px;">TITLE HERE</text>
	<g>
		<text transform="matrix(1 0 0 1 129.0786 393.0457)" style="fill:#8B929D; font-family:'Nunito-Regular'; font-size:4.3949px;">HEADLINE HERE</text>
	</g>
	<text transform="matrix(1 0 0 1 132.5844 399.2527)" style="fill:#FFFFFF; font-family:'Nunito-Regular'; font-size:3.1177px;">MORE</text>
	<text transform="matrix(1 0 0 1 196.5532 357.9792)" style="fill:#508099; font-family:'Nunito-Regular'; font-size:7.9167px;">TITLE HERE</text>
	<g>
		<text transform="matrix(1 0 0 1 196.5532 365.0017)" style="fill:#8B929D; font-family:'Nunito-Regular'; font-size:5.5695px;">HEADLINE HERE</text>
	</g>
	<g>
		<rect x="196.207" y="373.834" style="fill:none;" width="111.786" height="22.205"/>
		<text transform="matrix(1 0 0 1 196.207 376.2)"><tspan x="0" y="0" style="fill:#272E31; font-family:'Montserrat-Medium'; font-size:3.3334px;">Lorem ipsum dolor sit amet, consectetuer adipiscing elit, sed diam nonummy </tspan><tspan x="0" y="4" style="fill:#272E31; font-family:'Montserrat-Medium'; font-size:3.3334px;">nibh euismod tincidunt ut laoreet dolore magna aliquam erat volutpat. Ut wisi </tspan><tspan x="0" y="8.001" style="fill:#272E31; font-family:'Montserrat-Medium'; font-size:3.3334px;">enim ad minim veniam, quis nostrud exerci tation ullamcorper suscipit lobortis </tspan><tspan x="0" y="12.001" style="fill:#272E31; font-family:'Montserrat-Medium'; font-size:3.3334px;">nisl ut aliquip ex ea commodo consequat...</tspan></text>
	</g>
	<text transform="matrix(1 0 0 1 380.395 286.7566)" style="fill:#508099; font-family:'Nunito-SemiBold'; font-size:7.9908px;">YOUR WEBSITE</text>
	<text transform="matrix(1 0 0 1 415.3569 299.6326)" style="fill:#508099; font-family:'Nunito-Regular'; font-size:2.6948px;">SIGN UP</text>
	<text transform="matrix(1 0 0 1 389.2505 299.6326)" style="fill:#FFFFFF; font-family:'Nunito-Regular'; font-size:2.6948px;">LOGIN</text>
	<text transform="matrix(1 0 0 1 375.5942 395.988)" style="fill:#508099; font-family:'Nunito-Regular'; font-size:5.9426px;">TITLE HERE</text>
	<g>
		<text transform="matrix(1 0 0 1 375.5942 401.2615)" style="fill:#8B929D; font-family:'Nunito-Regular'; font-size:4.1807px;">HEADLINE HERE</text>
	</g>
	<text transform="matrix(1 0 0 1 422.1538 399.491)" style="fill:#FFFFFF; font-family:'Nunito-Regular'; font-size:3.1177px;">MORE</text>
	<rect x="382.395" y="291.405" style="fill:none;" width="45.766" height="3.398"/>
	
		<text transform="matrix(1 0 0 1 390.2934 292.9861)" style="fill:#508099; font-family:'Montserrat-Regular'; font-size:2.2278px;">LOREM IPSUM DOLOR SIT AMET.</text>
	<text transform="matrix(1 0 0 1 287.2182 85.5085)" style="fill:#D4FBFF; font-family:'Montserrat-Medium'; font-size:1.5959px;">SERVICE</text>
	<text transform="matrix(1 0 0 1 265.56 85.5085)" style="fill:#D4FBFF; font-family:'Montserrat-Medium'; font-size:1.5959px;">INFO</text>
	<text transform="matrix(1 0 0 1 311.2485 85.5085)" style="fill:#D4FBFF; font-family:'Montserrat-Medium'; font-size:1.5959px;">CONTACT</text>
	<text transform="matrix(1 0 0 1 246.8178 85.5085)" style="fill:#D4FBFF; font-family:'Montserrat-Medium'; font-size:1.5959px;">NEWS</text>
	<text transform="matrix(1 0 0 1 299.1528 99.031)" style="fill:#508099; font-family:'Nunito-SemiBold'; font-size:9.5756px;">YOUR WEBSITE</text>
	<rect x="300.848" y="104.229" style="fill:none;" width="56.244" height="4.869"/>
	
		<text transform="matrix(1 0 0 1 312.8686 105.9289)" style="fill:#508099; font-family:'Montserrat-Regular'; font-size:2.3939px;">LOREM IPSUM DOLOR SIT AMET.</text>
	<text transform="matrix(1 0 0 1 246.3681 172.2732)" style="fill:#508099; font-family:'Nunito-Regular'; font-size:3.7387px;">TITLE HERE</text>
	<g>
		<text transform="matrix(1 0 0 1 246.3681 176.6423)" style="fill:#8B929D; font-family:'Nunito-Regular'; font-size:3.1484px;">HEADLINE HERE</text>
	</g>
	<text transform="matrix(1 0 0 1 248.8794 181.0886)" style="fill:#FFFFFF; font-family:'Nunito-Regular'; font-size:2.2334px;">MORE</text>
	<text transform="matrix(1 0 0 1 290.7026 172.2576)" style="fill:#508099; font-family:'Nunito-Regular'; font-size:3.7387px;">TITLE HERE</text>
	<g>
		<text transform="matrix(1 0 0 1 290.7026 176.6257)" style="fill:#8B929D; font-family:'Nunito-Regular'; font-size:3.1484px;">HEADLINE HERE</text>
	</g>
	<text transform="matrix(1 0 0 1 293.2133 181.072)" style="fill:#FFFFFF; font-family:'Nunito-Regular'; font-size:2.2334px;">MORE</text>
	<text transform="matrix(1 0 0 1 334.4428 172.2644)" style="fill:#508099; font-family:'Nunito-Regular'; font-size:3.7387px;">TITLE HERE</text>
	<g>
		<text transform="matrix(1 0 0 1 334.4428 176.6345)" style="fill:#8B929D; font-family:'Nunito-Regular'; font-size:3.1484px;">HEADLINE HERE</text>
	</g>
	<text transform="matrix(1 0 0 1 336.9536 181.0808)" style="fill:#FFFFFF; font-family:'Nunito-Regular'; font-size:2.2334px;">MORE</text>
	<text transform="matrix(1 0 0 1 378.7768 172.2497)" style="fill:#508099; font-family:'Nunito-Regular'; font-size:3.7387px;">TITLE HERE</text>
	<g>
		<text transform="matrix(1 0 0 1 378.7768 176.6179)" style="fill:#8B929D; font-family:'Nunito-Regular'; font-size:3.1484px;">HEADLINE HERE</text>
	</g>
	<text transform="matrix(1 0 0 1 381.2876 181.0642)" style="fill:#FFFFFF; font-family:'Nunito-Regular'; font-size:2.2334px;">MORE</text>
	<text transform="matrix(1 0 0 1 131.3681 154.4245)" style="fill:#FFFFFF; font-family:'Nunito-Regular'; font-size:2.8059px;">MORE</text>
	<g>
		<text transform="matrix(1 0 0 1 128.2129 129.9529)" style="fill:#508099; font-family:'Nunito-Regular'; font-size:5.219px;">TITLE HERE</text>
		<g>
			<text transform="matrix(1 0 0 1 128.2129 136.0495)" style="fill:#8B929D; font-family:'Nunito-Regular'; font-size:4.3949px;">HEADLINE HERE</text>
		</g>
		<rect x="128.213" y="139.648" style="fill:none;" width="36.436" height="11.134"/>
		<text transform="matrix(1 0 0 1 128.2133 141.2292)"><tspan x="0" y="0" style="fill:#272E31; font-family:'Montserrat-Medium'; font-size:2.2278px;">Lorem ipsum dolor sit amet, </tspan><tspan x="0" y="2.673" style="fill:#272E31; font-family:'Montserrat-Medium'; font-size:2.2278px;">consectetuer adipiscing elit, sed diam </tspan><tspan x="0" y="5.347" style="fill:#272E31; font-family:'Montserrat-Medium'; font-size:2.2278px;">nonummy</tspan></text>
	</g>
	<text transform="matrix(1 0 0 1 131.3681 194.0329)" style="fill:#FFFFFF; font-family:'Nunito-Regular'; font-size:2.8059px;">MORE</text>
	<g>
		<text transform="matrix(1 0 0 1 128.2099 169.5622)" style="fill:#508099; font-family:'Nunito-Regular'; font-size:5.219px;">TITLE HERE</text>
		<g>
			<text transform="matrix(1 0 0 1 128.2099 175.6589)" style="fill:#8B929D; font-family:'Nunito-Regular'; font-size:4.3949px;">HEADLINE HERE</text>
		</g>
		<rect x="128.211" y="179.256" style="fill:none;" width="36.436" height="11.134"/>
		<text transform="matrix(1 0 0 1 128.2109 180.8381)"><tspan x="0" y="0" style="fill:#272E31; font-family:'Montserrat-Medium'; font-size:2.2278px;">Lorem ipsum dolor sit amet, </tspan><tspan x="0" y="2.673" style="fill:#272E31; font-family:'Montserrat-Medium'; font-size:2.2278px;">consectetuer adipiscing elit, sed diam </tspan><tspan x="0" y="5.347" style="fill:#272E31; font-family:'Montserrat-Medium'; font-size:2.2278px;">nonummy</tspan></text>
	</g>
	<text transform="matrix(1 0 0 1 128.5239 74.3913)" style="fill:#508099; font-family:'Nunito-Regular'; font-size:2.6948px;">SIGN UP</text>
	<text transform="matrix(1 0 0 1 102.4174 74.3904)" style="fill:#FFFFFF; font-family:'Nunito-Regular'; font-size:2.6948px;">LOGIN</text>
	<g>
		<text transform="matrix(1 0 0 1 93.562 61.5144)" style="fill:#508099; font-family:'Nunito-SemiBold'; font-size:7.9908px;">YOUR WEBSITE</text>
		<rect x="95.562" y="65.157" style="fill:none;" width="45.766" height="3.398"/>
		
			<text transform="matrix(1 0 0 1 103.4604 66.7385)" style="fill:#508099; font-family:'Montserrat-Regular'; font-size:2.2278px;">LOREM IPSUM DOLOR SIT AMET.</text>
	</g>
	<text transform="matrix(1 0 0 1 345.9048 115.2615)" style="fill:#508099; font-family:'Nunito-Regular'; font-size:2.5446px;">SIGN UP</text>
	<text transform="matrix(1 0 0 1 304.9526 115.2615)" style="fill:#FFFFFF; font-family:'Nunito-Regular'; font-size:2.5446px;">LOGIN</text>
	<text transform="matrix(1 0 0 1 214.8657 313.2898)" style="fill:#508099; font-family:'Nunito-Regular'; font-size:3.5521px;">SIGN UP</text>
	<text transform="matrix(1 0 0 1 157.6992 313.2898)" style="fill:#FFFFFF; font-family:'Nunito-Regular'; font-size:3.5521px;">LOGIN</text>
</g>
</svg>
